<?xml version="1.0" encoding="UTF-8" standalone="no"?>
<!DOCTYPE svg PUBLIC "-//W3C//DTD SVG 1.1//EN" "http://www.w3.org/Graphics/SVG/1.1/DTD/svg11.dtd">
<svg version="1.1" xmlns="http://www.w3.org/2000/svg" xmlns:xlink="http://www.w3.org/1999/xlink" preserveAspectRatio="xMidYMid meet" viewBox="0 0 640 640" width="600" height="600"><defs><path d="M254.65 201.75L408.16 201.75L408.16 355.26L254.65 355.26L254.65 201.75Z" id="jkbwfAQcc"></path><path d="M408.16 48.25L561.67 201.75L408.16 201.75L408.16 48.25Z" id="d42iUEbsKs"></path><path d="M408.16 508.77L561.67 355.26L408.16 355.26L408.16 508.77Z" id="cw1r8DRei"></path><path d="M257.19 508.77L101.14 355.26L257.19 355.26L257.19 508.77Z" id="e3ZyFryfnW"></path><path d="M254.65 48.25L101.14 201.75L254.65 201.75L254.65 48.25Z" id="bGHOsbvMi"></path><path d="M254.65 355.26L408.16 355.26L408.16 508.77L254.65 508.77L254.65 355.26Z" id="ckmHAy71F"></path><path d="M408.16 201.75L561.67 201.75L561.67 355.26L408.16 355.26L408.16 201.75Z" id="b1biuUaG21"></path><path d="M254.65 48.25L408.16 48.25L408.16 201.75L254.65 201.75L254.65 48.25Z" id="aOuXgjJF5"></path><path d="M101.14 201.75L254.65 201.75L254.65 355.26L101.14 355.26L101.14 201.75Z" id="a1SldlML60"></path><path d="M101.14 355.26L254.65 508.77L408.16 508.77L561.67 355.26L561.67 201.75L408.16 48.25L254.65 48.25L101.14 201.75L101.14 355.26Z" id="lN6iZP80j"></path></defs><g><g><g><use xlink:href="#jkbwfAQcc" opacity="1" fill="#c91401" fill-opacity="1"></use><g><use xlink:href="#jkbwfAQcc" opacity="1" fill-opacity="0" stroke="#1e2a07" stroke-width="0" stroke-opacity="1"></use></g></g><g><use xlink:href="#d42iUEbsKs" opacity="1" fill="#c91401" fill-opacity="1"></use><g><use xlink:href="#d42iUEbsKs" opacity="1" fill-opacity="0" stroke="#c8f76b" stroke-width="0" stroke-opacity="1"></use></g></g><g><use xlink:href="#cw1r8DRei" opacity="1" fill="#c91401" fill-opacity="1"></use><g><use xlink:href="#cw1r8DRei" opacity="1" fill-opacity="0" stroke="#c8f76b" stroke-width="0" stroke-opacity="1"></use></g></g><g><use xlink:href="#e3ZyFryfnW" opacity="1" fill="#c91401" fill-opacity="1"></use><g><use xlink:href="#e3ZyFryfnW" opacity="1" fill-opacity="0" stroke="#c8f76b" stroke-width="0" stroke-opacity="1"></use></g></g><g><use xlink:href="#bGHOsbvMi" opacity="1" fill="#c91401" fill-opacity="1"></use></g><g><use xlink:href="#ckmHAy71F" opacity="1" fill="#c91401" fill-opacity="1"></use><g><use xlink:href="#ckmHAy71F" opacity="1" fill-opacity="0" stroke="#1e2a07" stroke-width="0" stroke-opacity="1"></use></g></g><g><use xlink:href="#b1biuUaG21" opacity="1" fill="#c91401" fill-opacity="1"></use><g><use xlink:href="#b1biuUaG21" opacity="1" fill-opacity="0" stroke="#1e2a07" stroke-width="0" stroke-opacity="1"></use></g></g><g><use xlink:href="#aOuXgjJF5" opacity="1" fill="#c91401" fill-opacity="1"></use><g><use xlink:href="#aOuXgjJF5" opacity="1" fill-opacity="0" stroke="#1e2a07" stroke-width="0" stroke-opacity="1"></use></g></g><g><use xlink:href="#a1SldlML60" opacity="1" fill="#c91401" fill-opacity="1"></use><g><use xlink:href="#a1SldlML60" opacity="1" fill-opacity="0" stroke="#1e2a07" stroke-width="0" stroke-opacity="1"></use></g></g><g><g><use xlink:href="#lN6iZP80j" opacity="1" fill-opacity="0" stroke="#fafbf8" stroke-width="20" stroke-opacity="1"></use></g><g><filter id="shadow16649568" x="77.14" y="24.25" width="512.53" height="512.53" filterUnits="userSpaceOnUse" primitiveUnits="userSpaceOnUse"><feFlood></feFlood><feComposite in2="SourceAlpha" operator="out"></feComposite><feGaussianBlur stdDeviation="2.65"></feGaussianBlur><feOffset dx="4" dy="-4" result="afterOffset"></feOffset><feFlood flood-color="#b06262" flood-opacity="0.8"></feFlood><feComposite in2="afterOffset" operator="in"></feComposite><feMorphology operator="dilate" radius="1"></feMorphology><feComposite in2="SourceAlpha" operator="in"></feComposite></filter><path d="M101.14 355.26L254.65 508.77L408.16 508.77L561.67 355.26L561.67 201.75L408.16 48.25L254.65 48.25L101.14 201.75L101.14 355.26Z" id="j1OoKUX12B" fill="white" fill-opacity="1" filter="url(#shadow16649568)"></path></g></g></g></g></svg>